<svg width="255" height="155" viewBox="0 0 255 155" fill="none" xmlns="http://www.w3.org/2000/svg">
<g filter="url(#filter0_d_10_41)">
<g filter="url(#filter1_i_10_41)">
<path d="M150.262 78.321C155.49 83.7536 135.015 86.4699 126.737 88.0221C118.895 86.0819 98.8554 84.9178 103.212 78.321C99.7267 72.1123 118.024 69.784 126.737 68.6198C133.272 69.784 154.183 72.5003 150.262 78.321Z" fill="#01439A"/>
</g>
<path d="M126.726 69.1247C130.05 69.7131 136.805 70.6741 142.286 72.2058C145.057 72.98 147.433 73.8829 148.867 74.9187C149.583 75.4361 150.009 75.9469 150.171 76.4372C150.323 76.8972 150.268 77.417 149.847 78.0417L149.622 78.3767L149.902 78.6677C150.496 79.2844 150.646 79.7779 150.596 80.1706C150.544 80.5811 150.256 81.0342 149.645 81.5193C148.417 82.4938 146.177 83.3694 143.428 84.1452C138.003 85.6765 130.934 86.7314 126.75 87.5114C124.774 87.031 122.073 86.5963 119.222 86.1218C116.307 85.6364 113.222 85.1059 110.521 84.4323C107.801 83.7539 105.551 82.949 104.252 81.9509C103.61 81.4574 103.25 80.9547 103.138 80.445C103.029 79.9467 103.135 79.3439 103.629 78.5964L103.798 78.3425L103.648 78.0759C103.265 77.3935 103.204 76.8141 103.346 76.3034C103.493 75.7778 103.874 75.2538 104.508 74.737C105.786 73.6953 107.936 72.8081 110.539 72.0593C115.693 70.5767 122.357 69.7082 126.726 69.1247Z" stroke="#00D1FF"/>
<g filter="url(#filter2_i_10_41)">
<path d="M141.177 90.8155C138.272 89.1023 137.244 91.2438 137.092 92.5287C137.092 93.8992 141.933 98.5248 144.354 100.666C145.443 101.352 145.716 100.666 145.716 100.238C143.9 95.0984 141.933 91.8148 141.177 90.8155Z" fill="#00D1FF"/>
</g>
<path d="M141.177 90.8155C138.272 89.1023 137.244 91.2438 137.092 92.5287C137.092 93.8992 141.933 98.5248 144.354 100.666C145.443 101.352 145.716 100.666 145.716 100.238C143.9 95.0984 141.933 91.8148 141.177 90.8155Z" stroke="#01439A"/>
<g filter="url(#filter3_i_10_41)">
<path d="M137.567 61.603C137.37 64.6289 139.736 64.4688 140.943 64.0105C142.158 63.3961 144.054 57.5595 144.85 54.7179C144.962 53.564 144.231 53.6595 143.851 53.8515C140.123 57.5664 138.108 60.567 137.567 61.603Z" fill="#00D1FF"/>
</g>
<path d="M137.567 61.603C137.37 64.6289 139.736 64.4688 140.943 64.0105C142.158 63.3961 144.054 57.5595 144.85 54.7179C144.962 53.564 144.231 53.6595 143.851 53.8515C140.123 57.5664 138.108 60.567 137.567 61.603Z" stroke="#01439A"/>
<g filter="url(#filter4_i_10_41)">
<path d="M124.976 60.531C126.486 63.2178 128.424 61.9466 129.204 60.9752C129.904 59.8667 128.291 53.9569 127.397 51.1405C126.853 50.0983 126.279 50.5306 126.061 50.877C124.927 55.8471 124.865 59.3839 124.976 60.531Z" fill="#00D1FF"/>
</g>
<path d="M124.976 60.531C126.486 63.2178 128.424 61.9466 129.204 60.9752C129.904 59.8667 128.291 53.9569 127.397 51.1405C126.853 50.0983 126.279 50.5306 126.061 50.877C124.927 55.8471 124.865 59.3839 124.976 60.531Z" stroke="#01439A"/>
<g filter="url(#filter5_i_10_41)">
<path d="M113.669 64.7788C116.363 66.4866 117.428 64.5161 117.623 63.3174C117.678 62.0331 113.259 57.5279 111.043 55.4359C110.034 54.7553 109.748 55.3878 109.73 55.7892C111.251 60.6693 112.99 63.8156 113.669 64.7788Z" fill="#00D1FF"/>
</g>
<path d="M113.669 64.7788C116.363 66.4866 117.428 64.5161 117.623 63.3174C117.678 62.0331 113.259 57.5279 111.043 55.4359C110.034 54.7553 109.748 55.3878 109.73 55.7892C111.251 60.6693 112.99 63.8156 113.669 64.7788Z" stroke="#01439A"/>
<g filter="url(#filter6_i_10_41)">
<path d="M103.934 70.863C107.18 71.1529 107.091 68.9494 106.642 67.8114C106.024 66.6613 94.3079 62.9931 91.2814 62.1524C90.0449 62.0077 90.5495 62.8709 90.7425 63.2303C94.6037 66.8259 102.839 70.3232 103.934 70.863Z" fill="#00D1FF"/>
</g>
<path d="M103.934 70.863C107.18 71.1529 107.091 68.9494 106.642 67.8114C106.024 66.6613 94.3079 62.9931 91.2814 62.1524C90.0449 62.0077 90.5495 62.8709 90.7425 63.2303C94.6037 66.8259 102.839 70.3232 103.934 70.863Z" stroke="#01439A"/>
<g filter="url(#filter7_i_10_41)">
<path d="M118.512 93.1858C118.905 90.1764 116.533 90.2035 115.298 90.5932C114.046 91.1382 111.774 96.8577 110.795 99.6494C110.608 100.795 111.344 100.741 111.736 100.57C115.699 97.0715 117.905 94.1895 118.512 93.1858Z" fill="#00D1FF"/>
</g>
<path d="M118.512 93.1858C118.905 90.1764 116.533 90.2035 115.298 90.5932C114.046 91.1382 111.774 96.8577 110.795 99.6494C110.608 100.795 111.344 100.741 111.736 100.57C115.699 97.0715 117.905 94.1895 118.512 93.1858Z" stroke="#01439A"/>
<g filter="url(#filter8_i_10_41)">
<path d="M130.308 93.7566C128.954 90.9991 126.946 92.1728 126.111 93.1044C125.349 94.1768 126.622 100.158 127.354 103.014C127.838 104.082 128.435 103.679 128.673 103.343C130.089 98.4363 130.353 94.9076 130.308 93.7566Z" fill="#00D1FF"/>
</g>
<path d="M130.308 93.7566C128.954 90.9991 126.946 92.1728 126.111 93.1044C125.349 94.1768 126.622 100.158 127.354 103.014C127.838 104.082 128.435 103.679 128.673 103.343C130.089 98.4363 130.353 94.9076 130.308 93.7566Z" stroke="#01439A"/>
<path d="M132.715 71.9789C129.126 82.5248 120.188 78.9007 118.677 71.9789C118.401 71.7692 118.372 71.7901 118.042 72.2935C117.354 73.2374 116.142 75.8803 116.803 78.9007C117.354 80.3689 119.611 83.3683 124.235 83.62C126.3 83.8298 130.981 83.8088 132.302 82.0469C133.266 81.2079 134.937 79.1939 134.937 76.9916C134.799 75.5233 134.367 72.2935 132.715 71.9789Z" fill="#8A2BE2" stroke="#A82BE2"/>
<path d="M125.505 79.316V76.331L125.774 75.0873L126.044 76.331V79.316H126.583V78.9843H126.852V78.6527H127.122V78.321L127.391 77.5748L127.391 78.321V78.6527V78.9843H127.122V79.316H126.852V79.9793H128.469V80.311H129.64L130.625 80.4768L129.64 80.6426H128.469V80.9743H126.583V81.306H126.852V81.6376H127.122V81.9693H127.391V82.6326L127.197 83.1848L127.122 82.6326V82.3009H126.852V81.9693H126.583V81.6376H126.448H126.044V84.5994V84.6226H126.039H125.505V81.6376H124.966V81.9693H124.831H124.696V82.3009H124.562H124.427V82.6326L124.292 83.1848L124.157 82.6326V81.9693H124.427V81.6376H124.696V81.4718V80.9743H123.08V80.6426H122.038L120.924 80.4768L122.038 80.311H123.214V79.9793H124.696V79.316H124.427V78.9843H124.292H124.157V78.321L124.292 77.5748L124.427 78.321V78.6527H124.696V78.9843H124.966V79.316H125.101H125.505Z" fill="white"/>
<path d="M126.044 76.331H125.505M126.044 76.331V79.316H126.583V78.9843H126.852V78.6527H127.122V78.321M126.044 76.331L125.774 75.0873L125.505 76.331M125.505 76.331V79.316H125.101H124.966V78.9843H124.696V78.6527H124.427V78.321M124.427 78.321H124.157M124.427 78.321L124.292 77.5748L124.157 78.321M124.157 78.321V78.9843H124.292H124.427V79.316H124.696V79.9793H123.214V80.311H122.038M122.038 80.311V80.6426M122.038 80.311L120.924 80.4768L122.038 80.6426M122.038 80.6426H123.08V80.9743H124.696V81.4718V81.6376H124.427V81.9693H124.157V82.6326M124.157 82.6326H124.427M124.157 82.6326L124.292 83.1848L124.427 82.6326M124.427 82.6326V82.3009H124.562H124.696V81.9693H124.831H124.966V81.6376H125.505V84.6226H126.044V84.5994M127.122 82.6326V82.3009H126.852V81.9693H126.583V81.6376H126.448H126.044V84.5994M127.122 82.6326H127.391M127.122 82.6326L127.197 83.1848L127.391 82.6326M127.391 82.6326V81.9693H127.122V81.6376H126.852V81.306H126.583V80.9743H128.469V80.6426H129.64M129.64 80.6426V80.311M129.64 80.6426L130.625 80.4768L129.64 80.311M129.64 80.311H128.469V79.9793H126.852V79.316H127.122V78.9843H127.391V78.6527V78.321M127.391 78.321H127.122M127.391 78.321L127.391 77.5748L127.122 78.321M125.505 84.6958L125.774 85.8663L126.044 84.5994" stroke="white"/>
<g filter="url(#filter9_f_10_41)">
<path d="M125.505 79.316V76.331L125.774 75.0873L126.044 76.331V79.316H126.583V78.9843H126.852V78.6527H127.122V78.321L127.391 77.5748L127.391 78.321V78.6527V78.9843H127.122V79.316H126.852V79.9793H128.469V80.311H129.64L130.625 80.4768L129.64 80.6426H128.469V80.9743H126.583V81.306H126.852V81.6376H127.122V81.9693H127.391V82.6326L127.197 83.1848L127.122 82.6326V82.3009H126.852V81.9693H126.583V81.6376H126.448H126.044V84.5994V84.6226H126.039H125.505V81.6376H124.966V81.9693H124.831H124.696V82.3009H124.562H124.427V82.6326L124.292 83.1848L124.157 82.6326V81.9693H124.427V81.6376H124.696V81.4718V80.9743H123.08V80.6426H122.038L120.924 80.4768L122.038 80.311H123.214V79.9793H124.696V79.316H124.427V78.9843H124.292H124.157V78.321L124.292 77.5748L124.427 78.321V78.6527H124.696V78.9843H124.966V79.316H125.101H125.505Z" fill="white"/>
<path d="M126.044 76.331H125.505M126.044 76.331V79.316H126.583V78.9843H126.852V78.6527H127.122V78.321M126.044 76.331L125.774 75.0873L125.505 76.331M125.505 76.331V79.316H125.101H124.966V78.9843H124.696V78.6527H124.427V78.321M124.427 78.321H124.157M124.427 78.321L124.292 77.5748L124.157 78.321M124.157 78.321V78.9843H124.292H124.427V79.316H124.696V79.9793H123.214V80.311H122.038M122.038 80.311V80.6426M122.038 80.311L120.924 80.4768L122.038 80.6426M122.038 80.6426H123.08V80.9743H124.696V81.4718V81.6376H124.427V81.9693H124.157V82.6326M124.157 82.6326H124.427M124.157 82.6326L124.292 83.1848L124.427 82.6326M124.427 82.6326V82.3009H124.562H124.696V81.9693H124.831H124.966V81.6376H125.505V84.6226H126.044V84.5994M127.122 82.6326V82.3009H126.852V81.9693H126.583V81.6376H126.448H126.044V84.5994M127.122 82.6326H127.391M127.122 82.6326L127.197 83.1848L127.391 82.6326M127.391 82.6326V81.9693H127.122V81.6376H126.852V81.306H126.583V80.9743H128.469V80.6426H129.64M129.64 80.6426V80.311M129.64 80.6426L130.625 80.4768L129.64 80.311M129.64 80.311H128.469V79.9793H126.852V79.316H127.122V78.9843H127.391V78.6527V78.321M127.391 78.321H127.122M127.391 78.321L127.391 77.5748L127.122 78.321M125.505 84.6958L125.774 85.8663L126.044 84.5994" stroke="white"/>
</g>
<mask id="path-15-outside-1_10_41" maskUnits="userSpaceOnUse" x="49.86" y="71.6978" width="48" height="13" fill="black">
<rect fill="white" x="49.86" y="71.6978" width="48" height="13"/>
<path d="M56.46 80.1778C56.46 81.0924 56.2453 81.7644 55.816 82.1938C55.3867 82.6231 54.724 82.8378 53.828 82.8378C52.9413 82.8378 51.9987 82.7911 51 82.6978V80.8078C51.728 80.8544 52.4747 80.8778 53.24 80.8778C53.4547 80.8778 53.6227 80.8171 53.744 80.6958C53.8747 80.5651 53.94 80.3924 53.94 80.1778V74.8578H52.12V72.8978H56.46V80.1778ZM64.4395 75.5578C64.4395 74.9978 64.1595 74.7178 63.5995 74.7178H61.2195C60.6595 74.7178 60.3795 74.9978 60.3795 75.5578V80.0378C60.3795 80.5978 60.6595 80.8778 61.2195 80.8778H63.5995C64.1595 80.8778 64.4395 80.5978 64.4395 80.0378V75.5578ZM66.9595 80.0378C66.9595 81.0178 66.7355 81.7318 66.2875 82.1798C65.8488 82.6184 65.1395 82.8378 64.1595 82.8378H60.6595C59.6795 82.8378 58.9655 82.6184 58.5175 82.1798C58.0788 81.7318 57.8595 81.0178 57.8595 80.0378V75.5578C57.8595 74.5778 58.0788 73.8684 58.5175 73.4298C58.9655 72.9818 59.6795 72.7578 60.6595 72.7578H64.1595C65.1395 72.7578 65.8488 72.9818 66.2875 73.4298C66.7355 73.8684 66.9595 74.5778 66.9595 75.5578V80.0378ZM76.766 82.4878C74.582 82.7211 72.5753 82.8378 70.746 82.8378C69.8313 82.8378 69.1593 82.6231 68.73 82.1938C68.3007 81.7644 68.086 81.0924 68.086 80.1778V75.6978C68.086 74.7178 68.3053 74.0084 68.744 73.5698C69.192 73.1218 69.906 72.8978 70.886 72.8978H75.926V74.8578H71.446C70.886 74.8578 70.606 75.1378 70.606 75.6978V80.1778C70.606 80.3924 70.6667 80.5651 70.788 80.6958C70.9187 80.8171 71.0913 80.8778 71.306 80.8778C72.3793 80.8778 73.3593 80.8544 74.246 80.8078V78.7778H72.426V77.0978H76.766V82.4878ZM84.4688 75.5578C84.4688 74.9978 84.1888 74.7178 83.6288 74.7178H81.2488C80.6888 74.7178 80.4088 74.9978 80.4088 75.5578V80.0378C80.4088 80.5978 80.6888 80.8778 81.2488 80.8778H83.6288C84.1888 80.8778 84.4688 80.5978 84.4688 80.0378V75.5578ZM86.9888 80.0378C86.9888 81.0178 86.7648 81.7318 86.3168 82.1798C85.8781 82.6184 85.1688 82.8378 84.1888 82.8378H80.6888C79.7088 82.8378 78.9948 82.6184 78.5468 82.1798C78.1081 81.7318 77.8888 81.0178 77.8888 80.0378V75.5578C77.8888 74.5778 78.1081 73.8684 78.5468 73.4298C78.9948 72.9818 79.7088 72.7578 80.6888 72.7578H84.1888C85.1688 72.7578 85.8781 72.9818 86.3168 73.4298C86.7648 73.8684 86.9888 74.5778 86.9888 75.5578V80.0378ZM88.1013 80.6678C90.6586 80.8078 92.39 80.8778 93.2953 80.8778C93.51 80.8778 93.678 80.8171 93.7993 80.6958C93.93 80.5651 93.9953 80.3924 93.9953 80.1778V78.9178H90.7753C89.7953 78.9178 89.0813 78.6984 88.6333 78.2598C88.1946 77.8118 87.9753 77.0978 87.9753 76.1178V75.6978C87.9753 74.7178 88.1946 74.0084 88.6333 73.5698C89.0813 73.1218 89.7953 72.8978 90.7753 72.8978H95.6893V74.8578H91.3353C90.7753 74.8578 90.4953 75.1378 90.4953 75.6978V75.9778C90.4953 76.5378 90.7753 76.8178 91.3353 76.8178H93.8553C94.77 76.8178 95.442 77.0324 95.8713 77.4618C96.3006 77.8911 96.5153 78.5631 96.5153 79.4778V80.1778C96.5153 81.0924 96.3006 81.7644 95.8713 82.1938C95.442 82.6231 94.77 82.8378 93.8553 82.8378C93.3793 82.8378 92.8753 82.8284 92.3433 82.8098L91.0553 82.7538C90.1033 82.7071 89.1186 82.6418 88.1013 82.5578V80.6678Z"/>
</mask>
<path d="M56.46 80.1778C56.46 81.0924 56.2453 81.7644 55.816 82.1938C55.3867 82.6231 54.724 82.8378 53.828 82.8378C52.9413 82.8378 51.9987 82.7911 51 82.6978V80.8078C51.728 80.8544 52.4747 80.8778 53.24 80.8778C53.4547 80.8778 53.6227 80.8171 53.744 80.6958C53.8747 80.5651 53.94 80.3924 53.94 80.1778V74.8578H52.12V72.8978H56.46V80.1778ZM64.4395 75.5578C64.4395 74.9978 64.1595 74.7178 63.5995 74.7178H61.2195C60.6595 74.7178 60.3795 74.9978 60.3795 75.5578V80.0378C60.3795 80.5978 60.6595 80.8778 61.2195 80.8778H63.5995C64.1595 80.8778 64.4395 80.5978 64.4395 80.0378V75.5578ZM66.9595 80.0378C66.9595 81.0178 66.7355 81.7318 66.2875 82.1798C65.8488 82.6184 65.1395 82.8378 64.1595 82.8378H60.6595C59.6795 82.8378 58.9655 82.6184 58.5175 82.1798C58.0788 81.7318 57.8595 81.0178 57.8595 80.0378V75.5578C57.8595 74.5778 58.0788 73.8684 58.5175 73.4298C58.9655 72.9818 59.6795 72.7578 60.6595 72.7578H64.1595C65.1395 72.7578 65.8488 72.9818 66.2875 73.4298C66.7355 73.8684 66.9595 74.5778 66.9595 75.5578V80.0378ZM76.766 82.4878C74.582 82.7211 72.5753 82.8378 70.746 82.8378C69.8313 82.8378 69.1593 82.6231 68.73 82.1938C68.3007 81.7644 68.086 81.0924 68.086 80.1778V75.6978C68.086 74.7178 68.3053 74.0084 68.744 73.5698C69.192 73.1218 69.906 72.8978 70.886 72.8978H75.926V74.8578H71.446C70.886 74.8578 70.606 75.1378 70.606 75.6978V80.1778C70.606 80.3924 70.6667 80.5651 70.788 80.6958C70.9187 80.8171 71.0913 80.8778 71.306 80.8778C72.3793 80.8778 73.3593 80.8544 74.246 80.8078V78.7778H72.426V77.0978H76.766V82.4878ZM84.4688 75.5578C84.4688 74.9978 84.1888 74.7178 83.6288 74.7178H81.2488C80.6888 74.7178 80.4088 74.9978 80.4088 75.5578V80.0378C80.4088 80.5978 80.6888 80.8778 81.2488 80.8778H83.6288C84.1888 80.8778 84.4688 80.5978 84.4688 80.0378V75.5578ZM86.9888 80.0378C86.9888 81.0178 86.7648 81.7318 86.3168 82.1798C85.8781 82.6184 85.1688 82.8378 84.1888 82.8378H80.6888C79.7088 82.8378 78.9948 82.6184 78.5468 82.1798C78.1081 81.7318 77.8888 81.0178 77.8888 80.0378V75.5578C77.8888 74.5778 78.1081 73.8684 78.5468 73.4298C78.9948 72.9818 79.7088 72.7578 80.6888 72.7578H84.1888C85.1688 72.7578 85.8781 72.9818 86.3168 73.4298C86.7648 73.8684 86.9888 74.5778 86.9888 75.5578V80.0378ZM88.1013 80.6678C90.6586 80.8078 92.39 80.8778 93.2953 80.8778C93.51 80.8778 93.678 80.8171 93.7993 80.6958C93.93 80.5651 93.9953 80.3924 93.9953 80.1778V78.9178H90.7753C89.7953 78.9178 89.0813 78.6984 88.6333 78.2598C88.1946 77.8118 87.9753 77.0978 87.9753 76.1178V75.6978C87.9753 74.7178 88.1946 74.0084 88.6333 73.5698C89.0813 73.1218 89.7953 72.8978 90.7753 72.8978H95.6893V74.8578H91.3353C90.7753 74.8578 90.4953 75.1378 90.4953 75.6978V75.9778C90.4953 76.5378 90.7753 76.8178 91.3353 76.8178H93.8553C94.77 76.8178 95.442 77.0324 95.8713 77.4618C96.3006 77.8911 96.5153 78.5631 96.5153 79.4778V80.1778C96.5153 81.0924 96.3006 81.7644 95.8713 82.1938C95.442 82.6231 94.77 82.8378 93.8553 82.8378C93.3793 82.8378 92.8753 82.8284 92.3433 82.8098L91.0553 82.7538C90.1033 82.7071 89.1186 82.6418 88.1013 82.5578V80.6678Z" fill="url(#paint0_linear_10_41)"/>
<path d="M55.816 82.1938L55.1089 81.4866V81.4866L55.816 82.1938ZM51 82.6978H50V83.6087L50.9069 83.6934L51 82.6978ZM51 80.8078L51.064 79.8098L50 79.7416V80.8078H51ZM53.744 80.6958L54.4511 81.4029H54.4511L53.744 80.6958ZM53.94 74.8578H54.94V73.8578H53.94V74.8578ZM52.12 74.8578H51.12V75.8578H52.12V74.8578ZM52.12 72.8978V71.8978H51.12V72.8978H52.12ZM56.46 72.8978H57.46V71.8978H56.46V72.8978ZM56.46 80.1778H55.46C55.46 80.9597 55.2742 81.3214 55.1089 81.4866L55.816 82.1938L56.5231 82.9009C57.2165 82.2075 57.46 81.2251 57.46 80.1778H56.46ZM55.816 82.1938L55.1089 81.4866C54.9403 81.6552 54.5843 81.8378 53.828 81.8378V82.8378V83.8378C54.8637 83.8378 55.833 83.5909 56.5231 82.9009L55.816 82.1938ZM53.828 82.8378V81.8378C52.9761 81.8378 52.0647 81.7929 51.0931 81.7021L51 82.6978L50.9069 83.6934C51.9326 83.7893 52.9066 83.8378 53.828 83.8378V82.8378ZM51 82.6978H52V80.8078H51H50V82.6978H51ZM51 80.8078L50.936 81.8057C51.6863 81.8538 52.4544 81.8778 53.24 81.8778V80.8778V79.8778C52.495 79.8778 51.7697 79.855 51.064 79.8098L51 80.8078ZM53.24 80.8778V81.8778C53.6496 81.8778 54.0978 81.7562 54.4511 81.4029L53.744 80.6958L53.0369 79.9886C53.0844 79.9412 53.139 79.9092 53.1874 79.8917C53.2318 79.8757 53.2542 79.8778 53.24 79.8778V80.8778ZM53.744 80.6958L54.4511 81.4029C54.7997 81.0542 54.94 80.6113 54.94 80.1778H53.94H52.94C52.94 80.1835 52.9392 80.1579 52.9557 80.1144C52.9733 80.068 53.0021 80.0234 53.0369 79.9886L53.744 80.6958ZM53.94 80.1778H54.94V74.8578H53.94H52.94V80.1778H53.94ZM53.94 74.8578V73.8578H52.12V74.8578V75.8578H53.94V74.8578ZM52.12 74.8578H53.12V72.8978H52.12H51.12V74.8578H52.12ZM52.12 72.8978V73.8978H56.46V72.8978V71.8978H52.12V72.8978ZM56.46 72.8978H55.46V80.1778H56.46H57.46V72.8978H56.46ZM66.2875 82.1798L65.5803 81.4726V81.4726L66.2875 82.1798ZM58.5175 82.1798L57.8029 82.8794L57.8103 82.8869L57.8178 82.8943L58.5175 82.1798ZM58.5175 73.4298L57.8103 72.7226L57.8103 72.7226L58.5175 73.4298ZM66.2875 73.4298L65.5729 74.1294L65.5803 74.1369L65.5878 74.1443L66.2875 73.4298ZM64.4395 75.5578H65.4395C65.4395 75.1236 65.3302 74.6143 64.9366 74.2206C64.5429 73.827 64.0336 73.7178 63.5995 73.7178V74.7178V75.7178C63.6591 75.7178 63.6706 75.7256 63.6507 75.7189C63.626 75.7107 63.5745 75.687 63.5223 75.6349C63.4702 75.5827 63.4465 75.5312 63.4383 75.5065C63.4317 75.4866 63.4395 75.4981 63.4395 75.5578H64.4395ZM63.5995 74.7178V73.7178H61.2195V74.7178V75.7178H63.5995V74.7178ZM61.2195 74.7178V73.7178C60.7853 73.7178 60.276 73.827 59.8823 74.2206C59.4887 74.6143 59.3795 75.1236 59.3795 75.5578H60.3795H61.3795C61.3795 75.4981 61.3873 75.4866 61.3806 75.5065C61.3724 75.5312 61.3487 75.5827 61.2966 75.6349C61.2444 75.687 61.1929 75.7107 61.1682 75.7189C61.1483 75.7256 61.1598 75.7178 61.2195 75.7178V74.7178ZM60.3795 75.5578H59.3795V80.0378H60.3795H61.3795V75.5578H60.3795ZM60.3795 80.0378H59.3795C59.3795 80.4719 59.4887 80.9812 59.8823 81.3749C60.276 81.7685 60.7853 81.8778 61.2195 81.8778V80.8778V79.8778C61.1598 79.8778 61.1483 79.8699 61.1682 79.8766C61.1929 79.8848 61.2444 79.9085 61.2966 79.9606C61.3487 80.0128 61.3724 80.0643 61.3806 80.089C61.3873 80.1089 61.3795 80.0974 61.3795 80.0378H60.3795ZM61.2195 80.8778V81.8778H63.5995V80.8778V79.8778H61.2195V80.8778ZM63.5995 80.8778V81.8778C64.0336 81.8778 64.5429 81.7685 64.9366 81.3749C65.3302 80.9812 65.4395 80.4719 65.4395 80.0378H64.4395H63.4395C63.4395 80.0974 63.4317 80.1089 63.4383 80.089C63.4465 80.0643 63.4702 80.0128 63.5223 79.9606C63.5745 79.9085 63.626 79.8848 63.6507 79.8766C63.6706 79.8699 63.6591 79.8778 63.5995 79.8778V80.8778ZM64.4395 80.0378H65.4395V75.5578H64.4395H63.4395V80.0378H64.4395ZM66.9595 80.0378H65.9595C65.9595 80.8941 65.7601 81.2929 65.5803 81.4726L66.2875 82.1798L66.9946 82.8869C67.7108 82.1706 67.9595 81.1414 67.9595 80.0378H66.9595ZM66.2875 82.1798L65.5803 81.4726C65.4132 81.6398 65.023 81.8378 64.1595 81.8378V82.8378V83.8378C65.2559 83.8378 66.2844 83.597 66.9946 82.8869L66.2875 82.1798ZM64.1595 82.8378V81.8378H60.6595V82.8378V83.8378H64.1595V82.8378ZM60.6595 82.8378V81.8378C59.7984 81.8378 59.3964 81.6408 59.2171 81.4652L58.5175 82.1798L57.8178 82.8943C58.5345 83.596 59.5605 83.8378 60.6595 83.8378V82.8378ZM58.5175 82.1798L59.232 81.4801C59.0564 81.3008 58.8595 80.8988 58.8595 80.0378H57.8595H56.8595C56.8595 81.1367 57.1012 82.1627 57.8029 82.8794L58.5175 82.1798ZM57.8595 80.0378H58.8595V75.5578H57.8595H56.8595V80.0378H57.8595ZM57.8595 75.5578H58.8595C58.8595 74.6942 59.0574 74.304 59.2246 74.1369L58.5175 73.4298L57.8103 72.7226C57.1002 73.4328 56.8595 74.4613 56.8595 75.5578H57.8595ZM58.5175 73.4298L59.2246 74.1369C59.4043 73.9571 59.8031 73.7578 60.6595 73.7578V72.7578V71.7578C59.5558 71.7578 58.5266 72.0064 57.8103 72.7226L58.5175 73.4298ZM60.6595 72.7578V73.7578H64.1595V72.7578V71.7578H60.6595V72.7578ZM64.1595 72.7578V73.7578C65.0182 73.7578 65.4052 73.9581 65.5729 74.1294L66.2875 73.4298L67.002 72.7301C66.2923 72.0054 65.2607 71.7578 64.1595 71.7578V72.7578ZM66.2875 73.4298L65.5878 74.1443C65.7591 74.312 65.9595 74.699 65.9595 75.5578H66.9595H67.9595C67.9595 74.4565 67.7118 73.4249 66.9871 72.7152L66.2875 73.4298ZM66.9595 75.5578H65.9595V80.0378H66.9595H67.9595V75.5578H66.9595ZM76.766 82.4878L76.8722 83.4821L77.766 83.3866V82.4878H76.766ZM68.73 82.1938L69.4371 81.4866V81.4866L68.73 82.1938ZM68.744 73.5698L69.4511 74.2769H69.4511L68.744 73.5698ZM75.926 72.8978H76.926V71.8978H75.926V72.8978ZM75.926 74.8578V75.8578H76.926V74.8578H75.926ZM70.788 80.6958L70.0552 81.3762L70.0804 81.4033L70.1076 81.4285L70.788 80.6958ZM74.246 80.8078L74.2986 81.8064L75.246 81.7565V80.8078H74.246ZM74.246 78.7778H75.246V77.7778H74.246V78.7778ZM72.426 78.7778H71.426V79.7778H72.426V78.7778ZM72.426 77.0978V76.0978H71.426V77.0978H72.426ZM76.766 77.0978H77.766V76.0978H76.766V77.0978ZM76.766 82.4878L76.6598 81.4934C74.5043 81.7237 72.5337 81.8378 70.746 81.8378V82.8378V83.8378C72.617 83.8378 74.6597 83.7185 76.8722 83.4821L76.766 82.4878ZM70.746 82.8378V81.8378C69.9641 81.8378 69.6024 81.6519 69.4371 81.4866L68.73 82.1938L68.0229 82.9009C68.7163 83.5943 69.6986 83.8378 70.746 83.8378V82.8378ZM68.73 82.1938L69.4371 81.4866C69.2719 81.3214 69.086 80.9597 69.086 80.1778H68.086H67.086C67.086 81.2251 67.3295 82.2075 68.0229 82.9009L68.73 82.1938ZM68.086 80.1778H69.086V75.6978H68.086H67.086V80.1778H68.086ZM68.086 75.6978H69.086C69.086 74.8342 69.284 74.444 69.4511 74.2769L68.744 73.5698L68.0369 72.8626C67.3267 73.5728 67.086 74.6013 67.086 75.6978H68.086ZM68.744 73.5698L69.4511 74.2769C69.6309 74.0971 70.0297 73.8978 70.886 73.8978V72.8978V71.8978C69.7823 71.8978 68.7532 72.1464 68.0369 72.8626L68.744 73.5698ZM70.886 72.8978V73.8978H75.926V72.8978V71.8978H70.886V72.8978ZM75.926 72.8978H74.926V74.8578H75.926H76.926V72.8978H75.926ZM75.926 74.8578V73.8578H71.446V74.8578V75.8578H75.926V74.8578ZM71.446 74.8578V73.8578C71.0119 73.8578 70.5026 73.967 70.1089 74.3606C69.7152 74.7543 69.606 75.2636 69.606 75.6978H70.606H71.606C71.606 75.6381 71.6138 75.6266 71.6072 75.6465C71.599 75.6712 71.5753 75.7227 71.5231 75.7749C71.471 75.827 71.4194 75.8507 71.3947 75.8589C71.3749 75.8656 71.3864 75.8578 71.446 75.8578V74.8578ZM70.606 75.6978H69.606V80.1778H70.606H71.606V75.6978H70.606ZM70.606 80.1778H69.606C69.606 80.5904 69.7284 81.0242 70.0552 81.3762L70.788 80.6958L71.5208 80.0153C71.5561 80.0533 71.581 80.0971 71.595 80.1368C71.6079 80.1736 71.606 80.1913 71.606 80.1778H70.606ZM70.788 80.6958L70.1076 81.4285C70.4595 81.7554 70.8933 81.8778 71.306 81.8778V80.8778V79.8778C71.2925 79.8778 71.3102 79.8759 71.347 79.8888C71.3867 79.9027 71.4305 79.9277 71.4685 79.963L70.788 80.6958ZM71.306 80.8778V81.8778C72.3934 81.8778 73.3912 81.8541 74.2986 81.8064L74.246 80.8078L74.1935 79.8091C73.3274 79.8547 72.3653 79.8778 71.306 79.8778V80.8778ZM74.246 80.8078H75.246V78.7778H74.246H73.246V80.8078H74.246ZM74.246 78.7778V77.7778H72.426V78.7778V79.7778H74.246V78.7778ZM72.426 78.7778H73.426V77.0978H72.426H71.426V78.7778H72.426ZM72.426 77.0978V78.0978H76.766V77.0978V76.0978H72.426V77.0978ZM76.766 77.0978H75.766V82.4878H76.766H77.766V77.0978H76.766ZM86.3167 82.1798L85.6096 81.4726V81.4726L86.3167 82.1798ZM78.5468 82.1798L77.8322 82.8794L77.8396 82.8869L77.8471 82.8943L78.5468 82.1798ZM78.5468 73.4298L77.8396 72.7226V72.7226L78.5468 73.4298ZM86.3167 73.4298L85.6022 74.1294L85.6096 74.1369L85.6171 74.1443L86.3167 73.4298ZM84.4688 75.5578H85.4688C85.4688 75.1236 85.3595 74.6143 84.9659 74.2206C84.5722 73.827 84.0629 73.7178 83.6287 73.7178V74.7178V75.7178C83.6884 75.7178 83.6999 75.7256 83.68 75.7189C83.6553 75.7107 83.6038 75.687 83.5516 75.6349C83.4995 75.5827 83.4758 75.5312 83.4676 75.5065C83.4609 75.4866 83.4688 75.4981 83.4688 75.5578H84.4688ZM83.6287 74.7178V73.7178H81.2488V74.7178V75.7178H83.6287V74.7178ZM81.2488 74.7178V73.7178C80.8146 73.7178 80.3053 73.827 79.9116 74.2206C79.518 74.6143 79.4088 75.1236 79.4088 75.5578H80.4088H81.4088C81.4088 75.4981 81.4166 75.4866 81.4099 75.5065C81.4017 75.5312 81.378 75.5827 81.3259 75.6349C81.2737 75.687 81.2222 75.7107 81.1975 75.7189C81.1776 75.7256 81.1891 75.7178 81.2488 75.7178V74.7178ZM80.4088 75.5578H79.4088V80.0378H80.4088H81.4088V75.5578H80.4088ZM80.4088 80.0378H79.4088C79.4088 80.4719 79.518 80.9812 79.9116 81.3749C80.3053 81.7685 80.8146 81.8778 81.2488 81.8778V80.8778V79.8778C81.1891 79.8778 81.1776 79.8699 81.1975 79.8766C81.2222 79.8848 81.2737 79.9085 81.3259 79.9606C81.378 80.0128 81.4017 80.0643 81.4099 80.089C81.4166 80.1089 81.4088 80.0974 81.4088 80.0378H80.4088ZM81.2488 80.8778V81.8778H83.6287V80.8778V79.8778H81.2488V80.8778ZM83.6287 80.8778V81.8778C84.0629 81.8778 84.5722 81.7685 84.9659 81.3749C85.3595 80.9812 85.4688 80.4719 85.4688 80.0378H84.4688H83.4688C83.4688 80.0974 83.4609 80.1089 83.4676 80.089C83.4758 80.0643 83.4995 80.0128 83.5516 79.9606C83.6038 79.9085 83.6553 79.8848 83.68 79.8766C83.6999 79.8699 83.6884 79.8778 83.6287 79.8778V80.8778ZM84.4688 80.0378H85.4688V75.5578H84.4688H83.4688V80.0378H84.4688ZM86.9888 80.0378H85.9888C85.9888 80.8941 85.7894 81.2929 85.6096 81.4726L86.3167 82.1798L87.0239 82.8869C87.7401 82.1706 87.9888 81.1414 87.9888 80.0378H86.9888ZM86.3167 82.1798L85.6096 81.4726C85.4425 81.6398 85.0523 81.8378 84.1888 81.8378V82.8378V83.8378C85.2852 83.8378 86.3137 83.597 87.0239 82.8869L86.3167 82.1798ZM84.1888 82.8378V81.8378H80.6888V82.8378V83.8378H84.1888V82.8378ZM80.6888 82.8378V81.8378C79.8277 81.8378 79.4257 81.6408 79.2464 81.4652L78.5468 82.1798L77.8471 82.8943C78.5638 83.596 79.5898 83.8378 80.6888 83.8378V82.8378ZM78.5468 82.1798L79.2613 81.4801C79.0857 81.3008 78.8888 80.8988 78.8888 80.0378H77.8888H76.8888C76.8888 81.1367 77.1305 82.1627 77.8322 82.8794L78.5468 82.1798ZM77.8888 80.0378H78.8888V75.5578H77.8888H76.8888V80.0378H77.8888ZM77.8888 75.5578H78.8888C78.8888 74.6942 79.0867 74.304 79.2539 74.1369L78.5468 73.4298L77.8396 72.7226C77.1295 73.4328 76.8888 74.4613 76.8888 75.5578H77.8888ZM78.5468 73.4298L79.2539 74.1369C79.4336 73.9571 79.8324 73.7578 80.6888 73.7578V72.7578V71.7578C79.5851 71.7578 78.5559 72.0064 77.8396 72.7226L78.5468 73.4298ZM80.6888 72.7578V73.7578H84.1888V72.7578V71.7578H80.6888V72.7578ZM84.1888 72.7578V73.7578C85.0475 73.7578 85.4345 73.9581 85.6022 74.1294L86.3167 73.4298L87.0313 72.7301C86.3216 72.0054 85.29 71.7578 84.1888 71.7578V72.7578ZM86.3167 73.4298L85.6171 74.1443C85.7884 74.312 85.9888 74.699 85.9888 75.5578H86.9888H87.9888C87.9888 74.4565 87.7411 73.4249 87.0164 72.7152L86.3167 73.4298ZM86.9888 75.5578H85.9888V80.0378H86.9888H87.9888V75.5578H86.9888ZM88.1013 80.6678L88.156 79.6692L87.1013 79.6115V80.6678H88.1013ZM93.7993 80.6958L93.0922 79.9886V79.9886L93.7993 80.6958ZM93.9953 78.9178H94.9953V77.9178H93.9953V78.9178ZM88.6333 78.2598L87.9188 78.9594L87.9262 78.9669L87.9337 78.9743L88.6333 78.2598ZM88.6333 73.5698L89.3404 74.2769V74.2769L88.6333 73.5698ZM95.6893 72.8978H96.6893V71.8978H95.6893V72.8978ZM95.6893 74.8578V75.8578H96.6893V74.8578H95.6893ZM95.8713 77.4618L95.1642 78.1689L95.8713 77.4618ZM95.8713 82.1938L95.1642 81.4866V81.4866L95.8713 82.1938ZM92.3433 82.8098L92.2999 83.8088L92.3082 83.8091L92.3433 82.8098ZM91.0553 82.7538L91.0064 83.7526L91.0119 83.7528L91.0553 82.7538ZM88.1013 82.5578H87.1013V83.4786L88.019 83.5544L88.1013 82.5578ZM88.1013 80.6678L88.0466 81.6663C90.6006 81.8061 92.3585 81.8778 93.2953 81.8778V80.8778V79.8778C92.4215 79.8778 90.7167 79.8094 88.156 79.6692L88.1013 80.6678ZM93.2953 80.8778V81.8778C93.7049 81.8778 94.1531 81.7562 94.5064 81.4029L93.7993 80.6958L93.0922 79.9886C93.1397 79.9412 93.1943 79.9092 93.2427 79.8917C93.2871 79.8757 93.3096 79.8778 93.2953 79.8778V80.8778ZM93.7993 80.6958L94.5064 81.4029C94.855 81.0542 94.9953 80.6113 94.9953 80.1778H93.9953H92.9953C92.9953 80.1835 92.9946 80.1579 93.011 80.1144C93.0286 80.068 93.0574 80.0234 93.0922 79.9886L93.7993 80.6958ZM93.9953 80.1778H94.9953V78.9178H93.9953H92.9953V80.1778H93.9953ZM93.9953 78.9178V77.9178H90.7753V78.9178V79.9178H93.9953V78.9178ZM90.7753 78.9178V77.9178C89.9142 77.9178 89.5122 77.7208 89.3329 77.5452L88.6333 78.2598L87.9337 78.9743C88.6504 79.676 89.6764 79.9178 90.7753 79.9178V78.9178ZM88.6333 78.2598L89.3478 77.5601C89.1722 77.3808 88.9753 76.9788 88.9753 76.1178H87.9753H86.9753C86.9753 77.2167 87.217 78.2427 87.9188 78.9594L88.6333 78.2598ZM87.9753 76.1178H88.9753V75.6978H87.9753H86.9753V76.1178H87.9753ZM87.9753 75.6978H88.9753C88.9753 74.8342 89.1733 74.444 89.3404 74.2769L88.6333 73.5698L87.9262 72.8626C87.216 73.5728 86.9753 74.6013 86.9753 75.6978H87.9753ZM88.6333 73.5698L89.3404 74.2769C89.5202 74.0971 89.919 73.8978 90.7753 73.8978V72.8978V71.8978C89.6716 71.8978 88.6425 72.1464 87.9262 72.8626L88.6333 73.5698ZM90.7753 72.8978V73.8978H95.6893V72.8978V71.8978H90.7753V72.8978ZM95.6893 72.8978H94.6893V74.8578H95.6893H96.6893V72.8978H95.6893ZM95.6893 74.8578V73.8578H91.3353V74.8578V75.8578H95.6893V74.8578ZM91.3353 74.8578V73.8578C90.9012 73.8578 90.3919 73.967 89.9982 74.3606C89.6045 74.7543 89.4953 75.2636 89.4953 75.6978H90.4953H91.4953C91.4953 75.6381 91.5031 75.6266 91.4965 75.6465C91.4883 75.6712 91.4646 75.7227 91.4124 75.7749C91.3603 75.827 91.3087 75.8507 91.284 75.8589C91.2642 75.8656 91.2757 75.8578 91.3353 75.8578V74.8578ZM90.4953 75.6978H89.4953V75.9778H90.4953H91.4953V75.6978H90.4953ZM90.4953 75.9778H89.4953C89.4953 76.4119 89.6045 76.9212 89.9982 77.3149C90.3919 77.7085 90.9012 77.8178 91.3353 77.8178V76.8178V75.8178C91.2757 75.8178 91.2642 75.8099 91.284 75.8166C91.3087 75.8248 91.3603 75.8485 91.4124 75.9006C91.4646 75.9528 91.4883 76.0043 91.4965 76.029C91.5031 76.0489 91.4953 76.0374 91.4953 75.9778H90.4953ZM91.3353 76.8178V77.8178H93.8553V76.8178V75.8178H91.3353V76.8178ZM93.8553 76.8178V77.8178C94.6373 77.8178 94.9989 78.0036 95.1642 78.1689L95.8713 77.4618L96.5784 76.7546C95.885 76.0612 94.9027 75.8178 93.8553 75.8178V76.8178ZM95.8713 77.4618L95.1642 78.1689C95.3295 78.3341 95.5153 78.6958 95.5153 79.4778H96.5153H97.5153C97.5153 78.4304 97.2718 77.448 96.5784 76.7546L95.8713 77.4618ZM96.5153 79.4778H95.5153V80.1778H96.5153H97.5153V79.4778H96.5153ZM96.5153 80.1778H95.5153C95.5153 80.9597 95.3295 81.3214 95.1642 81.4866L95.8713 82.1938L96.5784 82.9009C97.2718 82.2075 97.5153 81.2251 97.5153 80.1778H96.5153ZM95.8713 82.1938L95.1642 81.4866C94.9989 81.6519 94.6373 81.8378 93.8553 81.8378V82.8378V83.8378C94.9027 83.8378 95.885 83.5943 96.5784 82.9009L95.8713 82.1938ZM93.8553 82.8378V81.8378C93.3923 81.8378 92.9 81.8287 92.3784 81.8104L92.3433 82.8098L92.3082 83.8091C92.8506 83.8282 93.3664 83.8378 93.8553 83.8378V82.8378ZM92.3433 82.8098L92.3867 81.8107L91.0988 81.7547L91.0553 82.7538L91.0119 83.7528L92.2999 83.8088L92.3433 82.8098ZM91.0553 82.7538L91.1043 81.755C90.1641 81.7089 89.1906 81.6443 88.1836 81.5611L88.1013 82.5578L88.019 83.5544C89.0467 83.6392 90.0425 83.7053 91.0064 83.7526L91.0553 82.7538ZM88.1013 82.5578H89.1013V80.6678H88.1013H87.1013V82.5578H88.1013Z" fill="#066F8C" mask="url(#path-15-outside-1_10_41)"/>
<mask id="path-17-outside-2_10_41" maskUnits="userSpaceOnUse" x="152.261" y="70.6198" width="52" height="13" fill="black">
<rect fill="white" x="152.261" y="70.6198" width="52" height="13"/>
<path d="M158.721 81.6198H153.681V79.6598H154.941V73.7798H153.681V71.8198H158.721V73.7798H157.461V79.6598H158.721V81.6198ZM168.52 81.6198H165.86L162.5 75.7398V81.6198H159.98V71.8198H162.64L166 77.6998V71.8198H168.52V81.6198ZM175.666 71.8198C176.721 71.8198 177.519 72.0952 178.06 72.6458C178.611 73.1872 178.886 73.9852 178.886 75.0398V78.3998C178.886 79.4545 178.611 80.2572 178.06 80.8078C177.519 81.3492 176.721 81.6198 175.666 81.6198H170.206V71.8198H175.666ZM176.366 75.0398C176.366 74.1998 175.946 73.7798 175.106 73.7798H172.726V79.6598H175.106C175.946 79.6598 176.366 79.2398 176.366 78.3998V75.0398ZM184.903 81.6198H179.863V79.6598H181.123V73.7798H179.863V71.8198H184.903V73.7798H183.643V79.6598H184.903V81.6198ZM193.931 81.6198H186.161V71.8198H193.931V73.7798H188.681V75.6698H192.811V77.6298H188.681V79.6598H193.931V81.6198ZM194.754 79.5898C197.311 79.7298 199.043 79.7998 199.948 79.7998C200.163 79.7998 200.331 79.7392 200.452 79.6178C200.583 79.4872 200.648 79.3145 200.648 79.0998V77.8398H197.428C196.448 77.8398 195.734 77.6205 195.286 77.1818C194.847 76.7338 194.628 76.0198 194.628 75.0398V74.6198C194.628 73.6398 194.847 72.9305 195.286 72.4918C195.734 72.0438 196.448 71.8198 197.428 71.8198H202.342V73.7798H197.988C197.428 73.7798 197.148 74.0598 197.148 74.6198V74.8998C197.148 75.4598 197.428 75.7398 197.988 75.7398H200.508C201.423 75.7398 202.095 75.9545 202.524 76.3838C202.953 76.8132 203.168 77.4852 203.168 78.3998V79.0998C203.168 80.0145 202.953 80.6865 202.524 81.1158C202.095 81.5452 201.423 81.7598 200.508 81.7598C200.032 81.7598 199.528 81.7505 198.996 81.7318L197.708 81.6758C196.756 81.6292 195.771 81.5638 194.754 81.4798V79.5898Z"/>
</mask>
<path d="M158.721 81.6198H153.681V79.6598H154.941V73.7798H153.681V71.8198H158.721V73.7798H157.461V79.6598H158.721V81.6198ZM168.52 81.6198H165.86L162.5 75.7398V81.6198H159.98V71.8198H162.64L166 77.6998V71.8198H168.52V81.6198ZM175.666 71.8198C176.721 71.8198 177.519 72.0952 178.06 72.6458C178.611 73.1872 178.886 73.9852 178.886 75.0398V78.3998C178.886 79.4545 178.611 80.2572 178.06 80.8078C177.519 81.3492 176.721 81.6198 175.666 81.6198H170.206V71.8198H175.666ZM176.366 75.0398C176.366 74.1998 175.946 73.7798 175.106 73.7798H172.726V79.6598H175.106C175.946 79.6598 176.366 79.2398 176.366 78.3998V75.0398ZM184.903 81.6198H179.863V79.6598H181.123V73.7798H179.863V71.8198H184.903V73.7798H183.643V79.6598H184.903V81.6198ZM193.931 81.6198H186.161V71.8198H193.931V73.7798H188.681V75.6698H192.811V77.6298H188.681V79.6598H193.931V81.6198ZM194.754 79.5898C197.311 79.7298 199.043 79.7998 199.948 79.7998C200.163 79.7998 200.331 79.7392 200.452 79.6178C200.583 79.4872 200.648 79.3145 200.648 79.0998V77.8398H197.428C196.448 77.8398 195.734 77.6205 195.286 77.1818C194.847 76.7338 194.628 76.0198 194.628 75.0398V74.6198C194.628 73.6398 194.847 72.9305 195.286 72.4918C195.734 72.0438 196.448 71.8198 197.428 71.8198H202.342V73.7798H197.988C197.428 73.7798 197.148 74.0598 197.148 74.6198V74.8998C197.148 75.4598 197.428 75.7398 197.988 75.7398H200.508C201.423 75.7398 202.095 75.9545 202.524 76.3838C202.953 76.8132 203.168 77.4852 203.168 78.3998V79.0998C203.168 80.0145 202.953 80.6865 202.524 81.1158C202.095 81.5452 201.423 81.7598 200.508 81.7598C200.032 81.7598 199.528 81.7505 198.996 81.7318L197.708 81.6758C196.756 81.6292 195.771 81.5638 194.754 81.4798V79.5898Z" fill="url(#paint1_linear_10_41)"/>
<path d="M158.721 81.6198V82.6198H159.721V81.6198H158.721ZM153.681 81.6198H152.681V82.6198H153.681V81.6198ZM153.681 79.6598V78.6598H152.681V79.6598H153.681ZM154.941 79.6598V80.6598H155.941V79.6598H154.941ZM154.941 73.7798H155.941V72.7798H154.941V73.7798ZM153.681 73.7798H152.681V74.7798H153.681V73.7798ZM153.681 71.8198V70.8198H152.681V71.8198H153.681ZM158.721 71.8198H159.721V70.8198H158.721V71.8198ZM158.721 73.7798V74.7798H159.721V73.7798H158.721ZM157.461 73.7798V72.7798H156.461V73.7798H157.461ZM157.461 79.6598H156.461V80.6598H157.461V79.6598ZM158.721 79.6598H159.721V78.6598H158.721V79.6598ZM158.721 81.6198V80.6198H153.681V81.6198V82.6198H158.721V81.6198ZM153.681 81.6198H154.681V79.6598H153.681H152.681V81.6198H153.681ZM153.681 79.6598V80.6598H154.941V79.6598V78.6598H153.681V79.6598ZM154.941 79.6598H155.941V73.7798H154.941H153.941V79.6598H154.941ZM154.941 73.7798V72.7798H153.681V73.7798V74.7798H154.941V73.7798ZM153.681 73.7798H154.681V71.8198H153.681H152.681V73.7798H153.681ZM153.681 71.8198V72.8198H158.721V71.8198V70.8198H153.681V71.8198ZM158.721 71.8198H157.721V73.7798H158.721H159.721V71.8198H158.721ZM158.721 73.7798V72.7798H157.461V73.7798V74.7798H158.721V73.7798ZM157.461 73.7798H156.461V79.6598H157.461H158.461V73.7798H157.461ZM157.461 79.6598V80.6598H158.721V79.6598V78.6598H157.461V79.6598ZM158.721 79.6598H157.721V81.6198H158.721H159.721V79.6598H158.721ZM168.52 81.6198V82.6198H169.52V81.6198H168.52ZM165.86 81.6198L164.992 82.116L165.279 82.6198H165.86V81.6198ZM162.5 75.7398L163.368 75.2437L161.5 71.9743V75.7398H162.5ZM162.5 81.6198V82.6198H163.5V81.6198H162.5ZM159.98 81.6198H158.98V82.6198H159.98V81.6198ZM159.98 71.8198V70.8198H158.98V71.8198H159.98ZM162.64 71.8198L163.508 71.3237L163.22 70.8198H162.64V71.8198ZM166 77.6998L165.132 78.196L167 81.4654V77.6998H166ZM166 71.8198V70.8198H165V71.8198H166ZM168.52 71.8198H169.52V70.8198H168.52V71.8198ZM168.52 81.6198V80.6198H165.86V81.6198V82.6198H168.52V81.6198ZM165.86 81.6198L166.728 81.1237L163.368 75.2437L162.5 75.7398L161.632 76.236L164.992 82.116L165.86 81.6198ZM162.5 75.7398H161.5V81.6198H162.5H163.5V75.7398H162.5ZM162.5 81.6198V80.6198H159.98V81.6198V82.6198H162.5V81.6198ZM159.98 81.6198H160.98V71.8198H159.98H158.98V81.6198H159.98ZM159.98 71.8198V72.8198H162.64V71.8198V70.8198H159.98V71.8198ZM162.64 71.8198L161.772 72.316L165.132 78.196L166 77.6998L166.868 77.2037L163.508 71.3237L162.64 71.8198ZM166 77.6998H167V71.8198H166H165V77.6998H166ZM166 71.8198V72.8198H168.52V71.8198V70.8198H166V71.8198ZM168.52 71.8198H167.52V81.6198H168.52H169.52V71.8198H168.52ZM178.06 72.6458L177.347 73.3469L177.353 73.353L177.359 73.359L178.06 72.6458ZM178.06 80.8078L178.767 81.5149V81.5149L178.06 80.8078ZM170.206 81.6198H169.206V82.6198H170.206V81.6198ZM170.206 71.8198V70.8198H169.206V71.8198H170.206ZM172.726 73.7798V72.7798H171.726V73.7798H172.726ZM172.726 79.6598H171.726V80.6598H172.726V79.6598ZM175.666 71.8198V72.8198C176.554 72.8198 177.054 73.049 177.347 73.3469L178.06 72.6458L178.773 71.9448C177.984 71.1413 176.888 70.8198 175.666 70.8198V71.8198ZM178.06 72.6458L177.359 73.359C177.657 73.6518 177.886 74.1526 177.886 75.0398H178.886H179.886C179.886 73.8177 179.565 72.7226 178.761 71.9327L178.06 72.6458ZM178.886 75.0398H177.886V78.3998H178.886H179.886V75.0398H178.886ZM178.886 78.3998H177.886C177.886 79.2858 177.658 79.7963 177.353 80.1007L178.06 80.8078L178.767 81.5149C179.564 80.718 179.886 79.6232 179.886 78.3998H178.886ZM178.06 80.8078L177.353 80.1007C177.061 80.3929 176.558 80.6198 175.666 80.6198V81.6198V82.6198C176.884 82.6198 177.977 82.3055 178.767 81.5149L178.06 80.8078ZM175.666 81.6198V80.6198H170.206V81.6198V82.6198H175.666V81.6198ZM170.206 81.6198H171.206V71.8198H170.206H169.206V81.6198H170.206ZM170.206 71.8198V72.8198H175.666V71.8198V70.8198H170.206V71.8198ZM176.366 75.0398H177.366C177.366 74.4657 177.222 73.8514 176.758 73.3877C176.295 72.9241 175.68 72.7798 175.106 72.7798V73.7798V74.7798C175.372 74.7798 175.388 74.8456 175.344 74.8019C175.301 74.7583 175.366 74.774 175.366 75.0398H176.366ZM175.106 73.7798V72.7798H172.726V73.7798V74.7798H175.106V73.7798ZM172.726 73.7798H171.726V79.6598H172.726H173.726V73.7798H172.726ZM172.726 79.6598V80.6598H175.106V79.6598V78.6598H172.726V79.6598ZM175.106 79.6598V80.6598C175.68 80.6598 176.295 80.5156 176.758 80.0519C177.222 79.5883 177.366 78.974 177.366 78.3998H176.366H175.366C175.366 78.6657 175.301 78.6814 175.344 78.6377C175.388 78.5941 175.372 78.6598 175.106 78.6598V79.6598ZM176.366 78.3998H177.366V75.0398H176.366H175.366V78.3998H176.366ZM184.903 81.6198V82.6198H185.903V81.6198H184.903ZM179.863 81.6198H178.863V82.6198H179.863V81.6198ZM179.863 79.6598V78.6598H178.863V79.6598H179.863ZM181.123 79.6598V80.6598H182.123V79.6598H181.123ZM181.123 73.7798H182.123V72.7798H181.123V73.7798ZM179.863 73.7798H178.863V74.7798H179.863V73.7798ZM179.863 71.8198V70.8198H178.863V71.8198H179.863ZM184.903 71.8198H185.903V70.8198H184.903V71.8198ZM184.903 73.7798V74.7798H185.903V73.7798H184.903ZM183.643 73.7798V72.7798H182.643V73.7798H183.643ZM183.643 79.6598H182.643V80.6598H183.643V79.6598ZM184.903 79.6598H185.903V78.6598H184.903V79.6598ZM184.903 81.6198V80.6198H179.863V81.6198V82.6198H184.903V81.6198ZM179.863 81.6198H180.863V79.6598H179.863H178.863V81.6198H179.863ZM179.863 79.6598V80.6598H181.123V79.6598V78.6598H179.863V79.6598ZM181.123 79.6598H182.123V73.7798H181.123H180.123V79.6598H181.123ZM181.123 73.7798V72.7798H179.863V73.7798V74.7798H181.123V73.7798ZM179.863 73.7798H180.863V71.8198H179.863H178.863V73.7798H179.863ZM179.863 71.8198V72.8198H184.903V71.8198V70.8198H179.863V71.8198ZM184.903 71.8198H183.903V73.7798H184.903H185.903V71.8198H184.903ZM184.903 73.7798V72.7798H183.643V73.7798V74.7798H184.903V73.7798ZM183.643 73.7798H182.643V79.6598H183.643H184.643V73.7798H183.643ZM183.643 79.6598V80.6598H184.903V79.6598V78.6598H183.643V79.6598ZM184.903 79.6598H183.903V81.6198H184.903H185.903V79.6598H184.903ZM193.931 81.6198V82.6198H194.931V81.6198H193.931ZM186.161 81.6198H185.161V82.6198H186.161V81.6198ZM186.161 71.8198V70.8198H185.161V71.8198H186.161ZM193.931 71.8198H194.931V70.8198H193.931V71.8198ZM193.931 73.7798V74.7798H194.931V73.7798H193.931ZM188.681 73.7798V72.7798H187.681V73.7798H188.681ZM188.681 75.6698H187.681V76.6698H188.681V75.6698ZM192.811 75.6698H193.811V74.6698H192.811V75.6698ZM192.811 77.6298V78.6298H193.811V77.6298H192.811ZM188.681 77.6298V76.6298H187.681V77.6298H188.681ZM188.681 79.6598H187.681V80.6598H188.681V79.6598ZM193.931 79.6598H194.931V78.6598H193.931V79.6598ZM193.931 81.6198V80.6198H186.161V81.6198V82.6198H193.931V81.6198ZM186.161 81.6198H187.161V71.8198H186.161H185.161V81.6198H186.161ZM186.161 71.8198V72.8198H193.931V71.8198V70.8198H186.161V71.8198ZM193.931 71.8198H192.931V73.7798H193.931H194.931V71.8198H193.931ZM193.931 73.7798V72.7798H188.681V73.7798V74.7798H193.931V73.7798ZM188.681 73.7798H187.681V75.6698H188.681H189.681V73.7798H188.681ZM188.681 75.6698V76.6698H192.811V75.6698V74.6698H188.681V75.6698ZM192.811 75.6698H191.811V77.6298H192.811H193.811V75.6698H192.811ZM192.811 77.6298V76.6298H188.681V77.6298V78.6298H192.811V77.6298ZM188.681 77.6298H187.681V79.6598H188.681H189.681V77.6298H188.681ZM188.681 79.6598V80.6598H193.931V79.6598V78.6598H188.681V79.6598ZM193.931 79.6598H192.931V81.6198H193.931H194.931V79.6598H193.931ZM194.754 79.5898L194.809 78.5913L193.754 78.5336V79.5898H194.754ZM200.452 79.6178L199.745 78.9107V78.9107L200.452 79.6178ZM200.648 77.8398H201.648V76.8398H200.648V77.8398ZM195.286 77.1818L194.572 77.8815L194.579 77.889L194.587 77.8964L195.286 77.1818ZM195.286 72.4918L195.993 73.1989V73.1989L195.286 72.4918ZM202.342 71.8198H203.342V70.8198H202.342V71.8198ZM202.342 73.7798V74.7798H203.342V73.7798H202.342ZM202.524 76.3838L201.817 77.0909L202.524 76.3838ZM202.524 81.1158L201.817 80.4087V80.4087L202.524 81.1158ZM198.996 81.7318L198.953 82.7309L198.961 82.7312L198.996 81.7318ZM197.708 81.6758L197.659 82.6747L197.665 82.6749L197.708 81.6758ZM194.754 81.4798H193.754V82.4007L194.672 82.4765L194.754 81.4798ZM194.754 79.5898L194.699 80.5883C197.253 80.7282 199.011 80.7998 199.948 80.7998V79.7998V78.7998C199.074 78.7998 197.369 78.7315 194.809 78.5913L194.754 79.5898ZM199.948 79.7998V80.7998C200.358 80.7998 200.806 80.6783 201.159 80.3249L200.452 79.6178L199.745 78.9107C199.793 78.8633 199.847 78.8312 199.896 78.8138C199.94 78.7978 199.962 78.7998 199.948 78.7998V79.7998ZM200.452 79.6178L201.159 80.3249C201.508 79.9763 201.648 79.5334 201.648 79.0998H200.648H199.648C199.648 79.1056 199.647 79.08 199.664 79.0365C199.681 78.9901 199.71 78.9455 199.745 78.9107L200.452 79.6178ZM200.648 79.0998H201.648V77.8398H200.648H199.648V79.0998H200.648ZM200.648 77.8398V76.8398H197.428V77.8398V78.8398H200.648V77.8398ZM197.428 77.8398V76.8398C196.567 76.8398 196.165 76.6429 195.986 76.4673L195.286 77.1818L194.587 77.8964C195.303 78.5981 196.329 78.8398 197.428 78.8398V77.8398ZM195.286 77.1818L196.001 76.4822C195.825 76.3029 195.628 75.9009 195.628 75.0398H194.628H193.628C193.628 76.1388 193.87 77.1648 194.572 77.8815L195.286 77.1818ZM194.628 75.0398H195.628V74.6198H194.628H193.628V75.0398H194.628ZM194.628 74.6198H195.628C195.628 73.7563 195.826 73.3661 195.993 73.1989L195.286 72.4918L194.579 71.7847C193.869 72.4949 193.628 73.5234 193.628 74.6198H194.628ZM195.286 72.4918L195.993 73.1989C196.173 73.0192 196.572 72.8198 197.428 72.8198V71.8198V70.8198C196.324 70.8198 195.295 71.0685 194.579 71.7847L195.286 72.4918ZM197.428 71.8198V72.8198H202.342V71.8198V70.8198H197.428V71.8198ZM202.342 71.8198H201.342V73.7798H202.342H203.342V71.8198H202.342ZM202.342 73.7798V72.7798H197.988V73.7798V74.7798H202.342V73.7798ZM197.988 73.7798V72.7798C197.554 72.7798 197.045 72.8891 196.651 73.2827C196.257 73.6764 196.148 74.1857 196.148 74.6198H197.148H198.148C198.148 74.5602 198.156 74.5487 198.149 74.5686C198.141 74.5933 198.117 74.6448 198.065 74.6969C198.013 74.7491 197.962 74.7728 197.937 74.781C197.917 74.7876 197.928 74.7798 197.988 74.7798V73.7798ZM197.148 74.6198H196.148V74.8998H197.148H198.148V74.6198H197.148ZM197.148 74.8998H196.148C196.148 75.334 196.257 75.8433 196.651 76.2369C197.045 76.6306 197.554 76.7398 197.988 76.7398V75.7398V74.7398C197.928 74.7398 197.917 74.732 197.937 74.7387C197.962 74.7469 198.013 74.7706 198.065 74.8227C198.117 74.8749 198.141 74.9264 198.149 74.9511C198.156 74.971 198.148 74.9595 198.148 74.8998H197.148ZM197.988 75.7398V76.7398H200.508V75.7398V74.7398H197.988V75.7398ZM200.508 75.7398V76.7398C201.29 76.7398 201.652 76.9257 201.817 77.0909L202.524 76.3838L203.231 75.6767C202.538 74.9833 201.556 74.7398 200.508 74.7398V75.7398ZM202.524 76.3838L201.817 77.0909C201.982 77.2562 202.168 77.6179 202.168 78.3998H203.168H204.168C204.168 77.3525 203.925 76.3701 203.231 75.6767L202.524 76.3838ZM203.168 78.3998H202.168V79.0998H203.168H204.168V78.3998H203.168ZM203.168 79.0998H202.168C202.168 79.8818 201.982 80.2435 201.817 80.4087L202.524 81.1158L203.231 81.8229C203.925 81.1296 204.168 80.1472 204.168 79.0998H203.168ZM202.524 81.1158L201.817 80.4087C201.652 80.574 201.29 80.7598 200.508 80.7598V81.7598V82.7598C201.556 82.7598 202.538 82.5163 203.231 81.8229L202.524 81.1158ZM200.508 81.7598V80.7598C200.045 80.7598 199.553 80.7508 199.031 80.7325L198.996 81.7318L198.961 82.7312C199.503 82.7503 200.019 82.7598 200.508 82.7598V81.7598ZM198.996 81.7318L199.04 80.7328L197.752 80.6768L197.708 81.6758L197.665 82.6749L198.953 82.7309L198.996 81.7318ZM197.708 81.6758L197.757 80.677C196.817 80.631 195.843 80.5664 194.836 80.4832L194.754 81.4798L194.672 82.4765C195.7 82.5613 196.695 82.6274 197.659 82.6746L197.708 81.6758ZM194.754 81.4798H195.754V79.5898H194.754H193.754V81.4798H194.754Z" fill="#066F8C" mask="url(#path-17-outside-2_10_41)"/>
</g>
<g filter="url(#filter10_i_10_41)">
<path d="M105.765 89.9973C107.617 87.3158 105.656 86.3066 104.444 86.1371C103.139 86.1074 94.173 94.4944 91.95 96.7135C91.2147 97.7182 92.2145 97.7044 92.6223 97.7137C97.6539 96.1259 104.756 90.6836 105.765 89.9973Z" fill="#00D1FF"/>
</g>
<path d="M105.765 89.9973C107.617 87.3158 105.656 86.3066 104.444 86.1371C103.139 86.1074 94.173 94.4944 91.95 96.7135C91.2147 97.7182 92.2145 97.7044 92.6223 97.7137C97.6539 96.1259 104.756 90.6836 105.765 89.9973Z" stroke="#01439A"/>
<g filter="url(#filter11_i_10_41)">
<path d="M150.614 85.078C147.388 84.6105 147.356 86.8155 147.742 87.9765C148.296 89.1587 159.794 93.4637 162.769 94.469C163.996 94.6813 163.54 93.7918 163.367 93.4223C159.708 89.6204 151.677 85.6769 150.614 85.078Z" fill="#00D1FF"/>
</g>
<path d="M150.614 85.078C147.388 84.6105 147.356 86.8155 147.742 87.9765C148.296 89.1587 159.794 93.4637 162.769 94.469C163.996 94.6813 163.54 93.7918 163.367 93.4223C159.708 89.6204 151.677 85.6769 150.614 85.078Z" stroke="#01439A"/>
<g filter="url(#filter12_i_10_41)">
<path d="M147.796 63.8024C145.816 66.3909 148.288 67.4129 149.491 67.641C150.793 67.7339 160.155 59.7919 162.483 57.6833C163.266 56.7155 162.267 56.6807 161.86 56.6516C156.757 57.9934 148.837 63.1659 147.796 63.8024Z" fill="#00D1FF"/>
</g>
<path d="M147.796 63.8024C145.816 66.3909 148.288 67.4129 149.491 67.641C150.793 67.7339 160.155 59.7919 162.483 57.6833C163.266 56.7155 162.267 56.6807 161.86 56.6516C156.757 57.9934 148.837 63.1659 147.796 63.8024Z" stroke="#01439A"/>
<defs>
<filter id="filter0_d_10_41" x="0" y="0" width="254.168" height="154.19" filterUnits="userSpaceOnUse" color-interpolation-filters="sRGB">
<feFlood flood-opacity="0" result="BackgroundImageFix"/>
<feColorMatrix in="SourceAlpha" type="matrix" values="0 0 0 0 0 0 0 0 0 0 0 0 0 0 0 0 0 0 127 0" result="hardAlpha"/>
<feOffset/>
<feGaussianBlur stdDeviation="25"/>
<feComposite in2="hardAlpha" operator="out"/>
<feColorMatrix type="matrix" values="0 0 0 0 0 0 0 0 0 0.819608 0 0 0 0 1 0 0 0 0.8 0"/>
<feBlend mode="normal" in2="BackgroundImageFix" result="effect1_dropShadow_10_41"/>
<feBlend mode="normal" in="SourceGraphic" in2="effect1_dropShadow_10_41" result="shape"/>
</filter>
<filter id="filter1_i_10_41" x="102.599" y="68.6198" width="48.5057" height="23.4023" filterUnits="userSpaceOnUse" color-interpolation-filters="sRGB">
<feFlood flood-opacity="0" result="BackgroundImageFix"/>
<feBlend mode="normal" in="SourceGraphic" in2="BackgroundImageFix" result="shape"/>
<feColorMatrix in="SourceAlpha" type="matrix" values="0 0 0 0 0 0 0 0 0 0 0 0 0 0 0 0 0 0 127 0" result="hardAlpha"/>
<feOffset dy="4"/>
<feGaussianBlur stdDeviation="2"/>
<feComposite in2="hardAlpha" operator="arithmetic" k2="-1" k3="1"/>
<feColorMatrix type="matrix" values="0 0 0 0 0 0 0 0 0 0 0 0 0 0 0 0 0 0 0.25 0"/>
<feBlend mode="plus-darker" in2="shape" result="effect1_innerShadow_10_41"/>
</filter>
<filter id="filter2_i_10_41" x="136.592" y="89.6777" width="9.62323" height="12.7803" filterUnits="userSpaceOnUse" color-interpolation-filters="sRGB">
<feFlood flood-opacity="0" result="BackgroundImageFix"/>
<feBlend mode="normal" in="SourceGraphic" in2="BackgroundImageFix" result="shape"/>
<feColorMatrix in="SourceAlpha" type="matrix" values="0 0 0 0 0 0 0 0 0 0 0 0 0 0 0 0 0 0 127 0" result="hardAlpha"/>
<feOffset dy="2"/>
<feGaussianBlur stdDeviation="0.5"/>
<feComposite in2="hardAlpha" operator="arithmetic" k2="-1" k3="1"/>
<feColorMatrix type="matrix" values="0 0 0 0 0 0 0 0 0 0 0 0 0 0 0 0 0 0 0.25 0"/>
<feBlend mode="normal" in2="shape" result="effect1_innerShadow_10_41"/>
</filter>
<filter id="filter3_i_10_41" x="137.042" y="53.2474" width="8.33136" height="12.5043" filterUnits="userSpaceOnUse" color-interpolation-filters="sRGB">
<feFlood flood-opacity="0" result="BackgroundImageFix"/>
<feBlend mode="normal" in="SourceGraphic" in2="BackgroundImageFix" result="shape"/>
<feColorMatrix in="SourceAlpha" type="matrix" values="0 0 0 0 0 0 0 0 0 0 0 0 0 0 0 0 0 0 127 0" result="hardAlpha"/>
<feOffset dy="2"/>
<feGaussianBlur stdDeviation="0.5"/>
<feComposite in2="hardAlpha" operator="arithmetic" k2="-1" k3="1"/>
<feColorMatrix type="matrix" values="0 0 0 0 0 0 0 0 0 0 0 0 0 0 0 0 0 0 0.25 0"/>
<feBlend mode="normal" in2="shape" result="effect1_innerShadow_10_41"/>
</filter>
<filter id="filter4_i_10_41" x="124.423" y="50" width="5.46577" height="13.6277" filterUnits="userSpaceOnUse" color-interpolation-filters="sRGB">
<feFlood flood-opacity="0" result="BackgroundImageFix"/>
<feBlend mode="normal" in="SourceGraphic" in2="BackgroundImageFix" result="shape"/>
<feColorMatrix in="SourceAlpha" type="matrix" values="0 0 0 0 0 0 0 0 0 0 0 0 0 0 0 0 0 0 127 0" result="hardAlpha"/>
<feOffset dy="2"/>
<feGaussianBlur stdDeviation="0.5"/>
<feComposite in2="hardAlpha" operator="arithmetic" k2="-1" k3="1"/>
<feColorMatrix type="matrix" values="0 0 0 0 0 0 0 0 0 0 0 0 0 0 0 0 0 0 0.25 0"/>
<feBlend mode="normal" in2="shape" result="effect1_innerShadow_10_41"/>
</filter>
<filter id="filter5_i_10_41" x="109.227" y="54.6342" width="8.89694" height="12.312" filterUnits="userSpaceOnUse" color-interpolation-filters="sRGB">
<feFlood flood-opacity="0" result="BackgroundImageFix"/>
<feBlend mode="normal" in="SourceGraphic" in2="BackgroundImageFix" result="shape"/>
<feColorMatrix in="SourceAlpha" type="matrix" values="0 0 0 0 0 0 0 0 0 0 0 0 0 0 0 0 0 0 127 0" result="hardAlpha"/>
<feOffset dy="2"/>
<feGaussianBlur stdDeviation="0.5"/>
<feComposite in2="hardAlpha" operator="arithmetic" k2="-1" k3="1"/>
<feColorMatrix type="matrix" values="0 0 0 0 0 0 0 0 0 0 0 0 0 0 0 0 0 0 0.25 0"/>
<feBlend mode="normal" in2="shape" result="effect1_innerShadow_10_41"/>
</filter>
<filter id="filter6_i_10_41" x="89.9643" y="61.648" width="17.4166" height="10.7292" filterUnits="userSpaceOnUse" color-interpolation-filters="sRGB">
<feFlood flood-opacity="0" result="BackgroundImageFix"/>
<feBlend mode="normal" in="SourceGraphic" in2="BackgroundImageFix" result="shape"/>
<feColorMatrix in="SourceAlpha" type="matrix" values="0 0 0 0 0 0 0 0 0 0 0 0 0 0 0 0 0 0 127 0" result="hardAlpha"/>
<feOffset dy="2"/>
<feGaussianBlur stdDeviation="0.5"/>
<feComposite in2="hardAlpha" operator="arithmetic" k2="-1" k3="1"/>
<feColorMatrix type="matrix" values="0 0 0 0 0 0 0 0 0 0 0 0 0 0 0 0 0 0 0.25 0"/>
<feBlend mode="normal" in2="shape" result="effect1_innerShadow_10_41"/>
</filter>
<filter id="filter7_i_10_41" x="110.256" y="89.9203" width="8.81075" height="12.2319" filterUnits="userSpaceOnUse" color-interpolation-filters="sRGB">
<feFlood flood-opacity="0" result="BackgroundImageFix"/>
<feBlend mode="normal" in="SourceGraphic" in2="BackgroundImageFix" result="shape"/>
<feColorMatrix in="SourceAlpha" type="matrix" values="0 0 0 0 0 0 0 0 0 0 0 0 0 0 0 0 0 0 127 0" result="hardAlpha"/>
<feOffset dy="2"/>
<feGaussianBlur stdDeviation="0.5"/>
<feComposite in2="hardAlpha" operator="arithmetic" k2="-1" k3="1"/>
<feColorMatrix type="matrix" values="0 0 0 0 0 0 0 0 0 0 0 0 0 0 0 0 0 0 0.25 0"/>
<feBlend mode="normal" in2="shape" result="effect1_innerShadow_10_41"/>
</filter>
<filter id="filter8_i_10_41" x="125.361" y="91.556" width="5.46716" height="13.6337" filterUnits="userSpaceOnUse" color-interpolation-filters="sRGB">
<feFlood flood-opacity="0" result="BackgroundImageFix"/>
<feBlend mode="normal" in="SourceGraphic" in2="BackgroundImageFix" result="shape"/>
<feColorMatrix in="SourceAlpha" type="matrix" values="0 0 0 0 0 0 0 0 0 0 0 0 0 0 0 0 0 0 127 0" result="hardAlpha"/>
<feOffset dy="2"/>
<feGaussianBlur stdDeviation="0.5"/>
<feComposite in2="hardAlpha" operator="arithmetic" k2="-1" k3="1"/>
<feColorMatrix type="matrix" values="0 0 0 0 0 0 0 0 0 0 0 0 0 0 0 0 0 0 0.25 0"/>
<feBlend mode="normal" in2="shape" result="effect1_innerShadow_10_41"/>
</filter>
<filter id="filter9_f_10_41" x="116.85" y="70.9814" width="17.8577" height="18.9971" filterUnits="userSpaceOnUse" color-interpolation-filters="sRGB">
<feFlood flood-opacity="0" result="BackgroundImageFix"/>
<feBlend mode="normal" in="SourceGraphic" in2="BackgroundImageFix" result="shape"/>
<feGaussianBlur stdDeviation="2" result="effect1_foregroundBlur_10_41"/>
</filter>
<filter id="filter10_i_10_41" x="91.1859" y="85.6385" width="15.841" height="13.5754" filterUnits="userSpaceOnUse" color-interpolation-filters="sRGB">
<feFlood flood-opacity="0" result="BackgroundImageFix"/>
<feBlend mode="normal" in="SourceGraphic" in2="BackgroundImageFix" result="shape"/>
<feColorMatrix in="SourceAlpha" type="matrix" values="0 0 0 0 0 0 0 0 0 0 0 0 0 0 0 0 0 0 127 0" result="hardAlpha"/>
<feOffset dy="2"/>
<feGaussianBlur stdDeviation="0.5"/>
<feComposite in2="hardAlpha" operator="arithmetic" k2="-1" k3="1"/>
<feColorMatrix type="matrix" values="0 0 0 0 0 0 0 0 0 0 0 0 0 0 0 0 0 0 0.25 0"/>
<feBlend mode="normal" in2="shape" result="effect1_innerShadow_10_41"/>
</filter>
<filter id="filter11_i_10_41" x="147.064" y="84.5246" width="17.0408" height="11.466" filterUnits="userSpaceOnUse" color-interpolation-filters="sRGB">
<feFlood flood-opacity="0" result="BackgroundImageFix"/>
<feBlend mode="normal" in="SourceGraphic" in2="BackgroundImageFix" result="shape"/>
<feColorMatrix in="SourceAlpha" type="matrix" values="0 0 0 0 0 0 0 0 0 0 0 0 0 0 0 0 0 0 127 0" result="hardAlpha"/>
<feOffset dy="2"/>
<feGaussianBlur stdDeviation="0.5"/>
<feComposite in2="hardAlpha" operator="arithmetic" k2="-1" k3="1"/>
<feColorMatrix type="matrix" values="0 0 0 0 0 0 0 0 0 0 0 0 0 0 0 0 0 0 0.25 0"/>
<feBlend mode="normal" in2="shape" result="effect1_innerShadow_10_41"/>
</filter>
<filter id="filter12_i_10_41" x="146.551" y="56.1498" width="16.7266" height="12.989" filterUnits="userSpaceOnUse" color-interpolation-filters="sRGB">
<feFlood flood-opacity="0" result="BackgroundImageFix"/>
<feBlend mode="normal" in="SourceGraphic" in2="BackgroundImageFix" result="shape"/>
<feColorMatrix in="SourceAlpha" type="matrix" values="0 0 0 0 0 0 0 0 0 0 0 0 0 0 0 0 0 0 127 0" result="hardAlpha"/>
<feOffset dy="2"/>
<feGaussianBlur stdDeviation="0.5"/>
<feComposite in2="hardAlpha" operator="arithmetic" k2="-1" k3="1"/>
<feColorMatrix type="matrix" values="0 0 0 0 0 0 0 0 0 0 0 0 0 0 0 0 0 0 0.25 0"/>
<feBlend mode="normal" in2="shape" result="effect1_innerShadow_10_41"/>
</filter>
<linearGradient id="paint0_linear_10_41" x1="96.6709" y1="69.6978" x2="96.6709" y2="96.6454" gradientUnits="userSpaceOnUse">
<stop stop-color="#FDFEFF"/>
<stop offset="1" stop-color="#07C9FF"/>
</linearGradient>
<linearGradient id="paint1_linear_10_41" x1="180.747" y1="68.6198" x2="180.747" y2="86.9442" gradientUnits="userSpaceOnUse">
<stop stop-color="#FDFEFF"/>
<stop offset="1" stop-color="#07C9FF"/>
</linearGradient>
</defs>
</svg>
